# xmcd
#
# Track frame offsets:
#	150
#	17022
#	31737
#	48818
#	64317
#	81079
#	97128
#	114984
#	132582
#	151530
#	166362
#	182375
#
# Disc length: 2558 seconds
#
# Revision: 1
# Processed by: cddbd v1.5.2PL0 Copyright (c) Steve Scherf et al.
# Submitted via: audiograbber 1.83.01
#
DISCID=8b09fc0c
DTITLE=Diverse Interpreten - Urchig Mundart-Hits
DYEAR=2018
DGENRE=Folklore
TTITLE0=Louenesse
TTITLE1=Heiterefahne
TTITLE2=Campari Soda
TTITLE3=Sternenträumer
TTITLE4=Heimweh
TTITLE5=Färmelbärg-Jutz
TTITLE6=Füür u Flamme
TTITLE7=Hie bini deheim
TTITLE8=Scharlachrot
TTITLE9=D' Strass dürab
TTITLE10=Hüt u itz
TTITLE11=Seebergsee Himne
EXTD=Die beschtä Schwiizer Mundart-Hits
EXTT0=
EXTT1=
EXTT2=
EXTT3=
EXTT4=
EXTT5=
EXTT6=
EXTT7=
EXTT8=
EXTT9=
EXTT10=
EXTT11=
PLAYORDER=
